<?xml version="1.0" encoding="UTF-8" standalone="no"?>
<svg
   xmlns:dc="http://purl.org/dc/elements/1.1/"
   xmlns:cc="http://creativecommons.org/ns#"
   xmlns:rdf="http://www.w3.org/1999/02/22-rdf-syntax-ns#"
   xmlns:svg="http://www.w3.org/2000/svg"
   xmlns="http://www.w3.org/2000/svg"
   xmlns:xlink="http://www.w3.org/1999/xlink"
   xmlns:sodipodi="http://sodipodi.sourceforge.net/DTD/sodipodi-0.dtd"
   xmlns:inkscape="http://www.inkscape.org/namespaces/inkscape"
   width="840"
   height="1174"
   id="svg4349"
   version="1.1"
   inkscape:version="0.91 r13725"
   sodipodi:docname="robot-307421.svg">
  <metadata
     id="metadata4506">
    <rdf:RDF>
      <cc:Work
         rdf:about="">
        <dc:format>image/svg+xml</dc:format>
        <dc:type
           rdf:resource="http://purl.org/dc/dcmitype/StillImage" />
      </cc:Work>
    </rdf:RDF>
  </metadata>
  <sodipodi:namedview
     pagecolor="#ffffff"
     bordercolor="#666666"
     borderopacity="1"
     objecttolerance="10"
     gridtolerance="10"
     guidetolerance="10"
     inkscape:pageopacity="0"
     inkscape:pageshadow="2"
     inkscape:window-width="2048"
     inkscape:window-height="1101"
     id="namedview4504"
     showgrid="false"
     inkscape:zoom="0.78109029"
     inkscape:cx="420"
     inkscape:cy="587"
     inkscape:window-x="0"
     inkscape:window-y="0"
     inkscape:window-maximized="1"
     inkscape:current-layer="layer1" />
  <defs
     id="defs4351">
    <linearGradient
       xlink:href="#svg_43"
       id="svg_40"
       y1="0.432203"
       y2="-0.220339"
       x1="0.150735"
       x2="1.25" />
    <linearGradient
       xlink:href="#svg_28"
       id="svg_25"
       y1="0.090323"
       y2="0.625806"
       x1="0.639706"
       x2="0.330882" />
    <linearGradient
       id="svg_43">
      <stop
         offset="0"
         style="stop-color:#fff;stop-opacity:.525"
         id="svg_46" />
      <stop
         offset="1"
         style="stop-color:#fff;stop-opacity:0"
         id="svg_45" />
    </linearGradient>
    <linearGradient
       xlink:href="#svg_42"
       id="svg_36"
       y1="0.5"
       y2="0.5"
       x1="0"
       x2="1" />
    <linearGradient
       xlink:href="#svg_28"
       id="svg_19"
       y1="0.226563"
       y2="0.804688"
       x1="0.625"
       x2="0.375" />
    <linearGradient
       id="svg_42">
      <stop
         offset="0"
         style="stop-color:#fff;stop-opacity:0"
         id="svg_48" />
      <stop
         offset="1"
         style="stop-color:#5f0e00;stop-opacity:.417"
         id="svg_47" />
    </linearGradient>
    <linearGradient
       id="svg_28">
      <stop
         offset="0"
         style="stop-opacity:0"
         id="svg_30" />
      <stop
         offset="1"
         style="stop-color:#07891f;stop-opacity:.691"
         id="svg_29" />
    </linearGradient>
    <linearGradient
       id="svg_99">
      <stop
         offset="0"
         style="stop-color:#fff;stop-opacity:.5"
         id="svg_104" />
      <stop
         offset="1"
         style="stop-color:#fff;stop-opacity:0"
         id="svg_103" />
    </linearGradient>
    <linearGradient
       id="svg_101">
      <stop
         offset="0"
         style="stop-color:#dd6204"
         id="svg_106" />
      <stop
         offset="1"
         style="stop-color:#e48e17"
         id="svg_105" />
    </linearGradient>
    <radialGradient
       fx="0.64486"
       fy="0.761194"
       cx="0.64486"
       cy="0.761194"
       xlink:href="#svg_101"
       r="0.634066"
       id="svg_86" />
    <radialGradient
       fx="0.432927"
       fy="0.514925"
       cx="0.439024"
       cy="0.497512"
       xlink:href="#svg_99"
       r="0.5"
       id="svg_78" />
    <symbol
       id="svg_14">
      <g
         id="svg_8"
         transform="translate(-10.7745, -5.37839)">
        <path
           style="fill:#e70000;fill-rule:evenodd;stroke-linejoin:round;stroke-linecap:round;stroke-width:15.481"
           id="svg_12"
           d="m 230.508,122.984 c -32.743,-23.1599 -58.81,-27.366 -104.553,-27.212 -44.9732,0.151497 -89.8183,18.171 -104.518,56.455 -14.6991,38.285 -15.2516,77.225 8.5077,135.629 23.7592,58.403 65.162,108.456 116.432,141.355 51.916,33.314 91.523,11.07 110.331,11.07 78.099,17.517 119.434,24.794 158.591,-5.539 38.27,-29.647 43.223,-42.959 54.501,-80.09 11.46,-37.727 10.38,-113.266 -0.730988,-165.72 -11.111,-52.453 -39.947,-75.815 -92.394,-92.4796 -52.446,-16.6651 -106.536,-4.0525 -146.167,26.5316 z " />
        <path
           style="fill:none;stroke:#000;fill-rule:evenodd;stroke-linejoin:round;stroke-linecap:round;stroke-width:13.561"
           id="svg_11"
           d="m 245.1705,130.4523 c -30.0128,-21.853 -55.4391,-25.6773 -100.87,-25.2017 -44.6662,0.467613 -91.1307,17.9753 -109.85,54.5945 -18.7188,36.6192 -23.4633,73.7624 -6.168,129.294 17.2954,55.5313 53.0074,102.971 100.364,133.981 47.9531,31.3998 89.6728,9.89935 108.345,9.76422 75.6507,16.1465 115.904,22.7892 158.049,-6.42221 41.1899,-28.55 51.0269,-52.9356 62.7395,-76.7767 17.3397,-35.2952 22.7603,-96.9946 6.71454,-147.732 -15.7959,-49.9475 -31.4915,-84.9165 -81.7653,-100.434 -50.2738,-15.5174 -94.9179,-0.520432 -137.559,28.9334 z " />
        <path
           style="stroke:#000;fill-rule:evenodd;stroke-width:1.088"
           id="svg_10"
           d="m 179.661,27.8052 c 5.03101,-18.1682 51.27,-17.6075 63.935,-21.8826 0,0 -4.771,95.8664 7.634,143.8 -19.175,-1.07001 -20.994,-4.16801 -20.994,-4.16801 0,0 -28.627,-104.203 -50.575,-117.75 z " />
        <path
           style="fill:#fff;fill-rule:evenodd"
           id="svg_9"
           d="m 417.5067,317.8639 c 2.41898,-1.10584 -7.19031,69.4868 -97.4159,89.4238 23.0446,-16.1609 82.7511,-39.8636 97.4159,-89.4238 z " />
      </g>
    </symbol>
    <symbol
       id="svg_31">
      <g
         id="svg_17">
        <path
           id="svg_27"
           d="m 53.782,16.2903 c -8.55001,2.0364 -20.848,18.861 -15.397,27.4652 2.79801,4.4148 12.31,9.2708 12.107,15.0908 -0.181999,5.217 -6.92601,13.142 -9.33601,17.91 -3.855,7.62801 -5.38399,16.528 -6.20399,25 -2.70301,27.929 18.777,53.875 27.74,79 7.481,20.97 4.36499,41.788 8.351,63 7.459,39.703 42.398,89.997 88.739,79.985 19.847,-4.28796 33.545,-17.6429 51,-26.814 14.76,-7.75598 30.472,-10.595 43,-22.261 8.106,-7.54804 16.2408,-14.8772 20.7618,-25.0562 4.435,-9.98502 5.27393,-18.1489 6.27893,-29.0789 1.21002,-13.159 -4.62878,-30.699 -10.7288,-41.775 -21.271,-38.618 -63.666,-53.881 -95.273,-82.17 -18.98,-16.987 -33.332,-38.394 -58.039,-48.504 -8.189,-3.351 -16.287,-3.525 -25,-3.311 -3.782,0.091999 -8.414,1.786 -11.957,-0.047001 -11.7,-6.0503 -7.694,-32.8041 -26.043,-28.434 z " />
        <path
           style="fill:#78423b"
           id="svg_26"
           d="m 197.1757,295.9209 c 10.9254,0.646973 27.3898,-8.30243 35.5933,-17.4305 l .1862,-.1097 c -17.9196,-6.19952 -32.477,0.064117 -35.7795,17.5402 z " />
        <path
           style="fill:#00b200;stroke:url(#svg_25)"
           id="svg_24"
           d="m 91.5102,49.8125 c -2.49271,-0.058441 -5.29465,0.650101 -7.98217,1.21108 l -4.1568,1.5 c 2.56628,4.8051 4.90617,9.10802 7.41008,13.9452 3.3895,6.54849 7.47282,15.8506 -0.448997,20.4918 -5.28554,3.0973 -12.8125,3.85506 -16.301,-1.398 -4.1989,-6.32221 -7.42367,-13.1037 -10.9375,-19.7812 l -.1875,.125 c -7.00816,3.26708 -9.965,8.85075 -12.625,15.8438 -7.612,20.014 -3.682,33.491 3.5,53 7.305,19.844 18.929,37.066 24.375,58 4.037,15.518 0.599251,30.958 3.40625,46 7.454,39.951 40.1202,86.0982 85.5312,77.5312 10.548,-1.98999 25.8047,-11.8278 33.4688,-19.2188 4.397,-4.242 5.91025,-9.80051 11.5312,-13.3125 12.601,-7.87299 27.761,-0.96875 39,-11.0938 7.12299,-6.41699 10.688,-10.9482 16.5,-18.2812 5.771,-7.28099 8.69049,-17.578 10.4375,-26.625 11.41,-59.11 -53.8557,-86.2742 -90.8438,-116.656 -28.1522,-23.1244 -48.748,-62.2509 -91.6773,-61.2812 z " />
        <path
           style="fill:#7ed77e"
           id="svg_23"
           d="m 91.236,54.8144 c -1.66254,-0.024979 -7.93269,1.3793 -9.41981,2.18435 0.751076,2.05234 4.7865,9.09745 5.57537,11.4467 1.30926,3.48613 2.96798,6.41217 2.70889,10.0044 -0.594955,3.63741 -1.56527,5.7431 -4.12021,8.08775 -0.972481,1.30799 -34.7648,14.8445 -29.2927,33.2124 1.21,4.062 2.81375,8.215 4.71875,12 7.612,15.125 20.9553,26.774 32.2812,39 7.171,7.742 11.727,14.807 18.625,22.875 6.416,7.50501 11.6485,19.305 17.9375,27.125 8.023,9.97501 20.7233,17.2745 32.5312,21.8125 35.431,13.617 96.0323,14.3628 96.2812,-36.6562 0.026001,-5.33501 -1.26224,-11.881 -2.78125,-17 -2.59599,-8.746 -9.27725,-16.749 -15.0312,-23.25 -21.274,-24.034 -51.4807,-37.5163 -74.4688,-59.9062 -16.086,-15.667 -29.877,-30.296 -49,-42.375 -7.75275,-4.8975 -17.1601,-8.41958 -26.5452,-8.56058 z " />
        <path
           style="fill:#78423b"
           id="svg_22"
           d="m 52.915,24.7879 c -3.71299,2.0759 -8.76899,11.7799 -7.48599,15.9684 1.894,6.177 9.877,11.989 13.889,17 5.43201,6.783 8.07601,14.751 12.739,21.772 2.149,3.23598 6.321,3.67799 9.57701,1.77 4.87999,-2.85901 2.833,-9.50801 0.744995,-13.542 -6.19099,-11.96 -12.861,-23.66 -18.649,-35.9105 -2.01801,-4.2695 -4.849,-10.3931 -10.815,-7.0579 z " />
        <path
           style="fill:#cc6f64"
           id="svg_21"
           d="m 75.4224,79.3294 c 1.31619,3.45729 6.13362,-2.54007 4.79062,-7.57307 -2.84399,-10.651 -11.292,-21.801 -15.909,-32 -1.435,-3.17009 -3.15601,-9.942 -6.06801,-11.9529 -5.08999,-3.5157 -9.54998,7.31171 -9.25099,10.9529 0.516998,6.312 8.844,12.363 12.717,17.015 5.62201,6.753 11.699,14.9145 13.7204,23.5581 z " />
        <path
           style="fill:#7ed77e;fill-rule:evenodd;stroke-width:1.25"
           id="svg_20"
           d="m 69.8381,85.5393 a 9.36681,10.7566 0 1,1 -9.95111,-18.2172 l 4.754,9.2681 5.1971,8.949 z " />
        <path
           style="fill:url(#svg_19)"
           id="svg_18"
           d="m 91.5102,49.8125 c -2.49271,-0.058441 -5.29465,0.650108 -7.98217,1.21109 l -4.1568,1.5 c 2.56628,4.8051 4.90617,9.10801 7.41008,13.9452 3.3895,6.5485 7.47282,15.8506 -0.448997,20.4917 -5.28554,3.09731 -12.8125,3.8551 -16.301,-1.39799 -4.1989,-6.32221 -7.42367,-13.1037 -10.9375,-19.7812 l -.1875,.125 c -7.00816,3.26709 -9.965,8.85075 -12.625,15.8438 -7.612,20.014 -3.682,33.491 3.5,53 7.305,19.844 18.929,37.066 24.375,58 4.037,15.518 0.599251,30.958 3.40625,46 7.454,39.951 40.1202,86.0982 85.5312,77.5312 10.548,-1.98999 25.8047,-11.8278 33.4688,-19.2188 4.397,-4.242 5.91025,-9.80051 11.5312,-13.3125 12.601,-7.87299 27.761,-0.96875 39,-11.0938 7.12299,-6.41699 10.688,-10.9482 16.5,-18.2812 5.771,-7.28099 8.69049,-17.578 10.4375,-26.625 11.41,-59.11 -53.8557,-86.2742 -90.8438,-116.656 -28.1522,-23.1244 -48.748,-62.2509 -91.6773,-61.2812 z " />
      </g>
    </symbol>
    <symbol
       id="svg_109">
      <g
         id="svg_53">
        <path
           style="fill:url(#svg_86);stroke:#000;fill-rule:evenodd;stroke-linejoin:round;stroke-width:10"
           id="svg_85"
           d="m 222.6806,36.4511 c -273.041,66.5797 -212.863,365.292 -111.037,410.892 289.424,123.648 365.875,-83.7002 374.976,-142.671 22.0622,-181.423 -134.7,-302.462 -263.94,-268.221 z " />
        <path
           style="fill:#fff;fill-rule:evenodd;fill-opacity:.1;stroke-width:1.25"
           id="svg_84"
           d="m 67.9573,137.2717 c 109.216,-43.7524 136.521,-55.166 185.668,-49.4592 25.4838,17.1205 118.318,13.3159 189.308,131.257 -60.069,-112.234 -81.9123,-123.648 -127.419,-129.355 -45.5068,0 43.6866,-15.2182 105.576,11.4136 -58.2488,-38.0455 -141.981,-19.0227 -101.935,-57.0683 -29.1244,3.80455 -30.9446,13.3159 -50.9677,28.5342 -43.6866,-13.3159 -27.3041,-32.3387 -103.756,-15.2182 56.4285,-3.80455 45.5069,1.90228 72.811,11.4137 -109.216,15.2182 -143.802,51.3615 -169.285,68.482 z " />
        <path
           style="fill:#090;stroke:#000;fill-rule:evenodd;stroke-linejoin:round;stroke-width:10"
           id="svg_83"
           d="m 263.6828,83.6124 c 2.03064,11.1685 3.55917,48.7139 7.16199,48.7139 7.80606,-3.13759 17.73,-40.26 21.9333,-44.0251 4.20328,-3.76509 42.054,28.5205 45.0563,27.2654 3.00235,-1.25503 -26.3546,-53.6424 -25.1537,-57.4075 -8.40652,-0.627522 -19.717,8.06609 -23.3198,1.79091 -3.60281,-6.27517 -10.71,-2.89786 -20.3175,-11.0556 -15.743,17.2391 -42.338,24.9738 -49.5435,35.6416 7.2056,5.02015 36.0604,1.10696 44.183,-0.923668 z " />
        <path
           style="fill:#090;stroke:#000;fill-rule:evenodd;stroke-linejoin:round;stroke-width:10"
           id="svg_82"
           d="m 273.1483,68.1078 c 3.00232,8.15773 10.2079,6.27517 13.8107,2.51006 7.2056,-1.88255 2.35825,-11.1824 4.38885,-25.8763 -6.6051,-3.7651 -6.97635,-2.89787 -14.1819,-1.01532 -1.20096,3.76511 -6.41953,20.6164 -4.01764,24.3815 z " />
        <path
           style="fill:#00eb00;fill-rule:evenodd;stroke-width:1.25"
           id="svg_81"
           d="m 280.5831,53.5833 c 0,0 -9.23624,14.5245 -0.829712,16.4071 6.60513,-2.51006 8.63577,-16.4071 0.829712,-16.4071 z " />
        <path
           style="fill:#00ea00;fill-rule:evenodd;stroke-width:1.25"
           id="svg_80"
           d="m 269.1765,70.2689 c -1.01532,0 -34.8595,8.00963 -31.8572,11.1472 9.60745,0 25.252,-2.362 31.8572,-11.1472 z " />
        <path
           style="fill:#00ea00;fill-rule:evenodd;stroke-width:1.25"
           id="svg_79"
           d="m 269.7094,74.0692 c 3.00232,9.41277 -2.90393,36.8263 0.098389,39.9639 9.60745,0 10.1095,-34.9437 -0.098389,-39.9639 z " />
        <path
           style="fill:url(#svg_78);fill-rule:evenodd;stroke-width:1.25"
           id="svg_77"
           d="m 177.1738,162.0013 c -96.4745,-22.8273 -160.184,121.746 -65.5299,209.25 131.06,70.3842 180.207,-112.234 65.5299,-209.25 z " />
        <path
           style="stroke-opacity:.742;fill:#db6422;stroke:#d55f00;fill-rule:evenodd;fill-opacity:.833;stroke-width:1.25"
           id="svg_76"
           d="m417.166107,406.590607a4.94815,5.3605 0 1 0 -9.89624,0a4.94815,5.3605 0 1 0 9.89624,0z" />
        <path
           style="stroke-opacity:.742;fill:#db6422;stroke:#d55f00;fill-rule:evenodd;fill-opacity:.833;stroke-width:1.25"
           id="svg_75"
           d="m350.15509,458.371613a4.94815,5.3605 0 1 0 -9.89624,0a4.94815,5.3605 0 1 0 9.89624,0z" />
        <path
           style="stroke-opacity:.742;fill:#db6422;stroke:#d55f00;fill-rule:evenodd;fill-opacity:.833;stroke-width:1.25"
           id="svg_74"
           d="m265.884094,472.586609a4.94815,5.3605 0 1 0 -9.89624,0a4.94815,5.3605 0 1 0 9.89624,0z" />
        <path
           style="stroke-opacity:.742;fill:#db6422;stroke:#d55f00;fill-rule:evenodd;fill-opacity:.833;stroke-width:1.25"
           id="svg_73"
           d="m454.577515,334.154602a4.94815,5.3605 0 1 0 -9.89624,0a4.94815,5.3605 0 1 0 9.89624,0z" />
        <path
           style="stroke-opacity:.742;fill:#db6422;stroke:#d55f00;fill-rule:evenodd;fill-opacity:.833;stroke-width:1.25"
           id="svg_72"
           d="m480.115784,249.217102a4.94815,5.3605 0 1 0 -9.89624,0a4.94815,5.3605 0 1 0 9.89624,0z" />
        <path
           style="stroke-opacity:.742;fill:#db6422;stroke:#d55f00;fill-rule:evenodd;fill-opacity:.833;stroke-width:1.25"
           id="svg_71"
           d="m453.71759,282.722412a4.94815,5.3605 0 1 0 -9.89624,0a4.94815,5.3605 0 1 0 9.89624,0z" />
        <path
           style="stroke-opacity:.742;fill:#db6422;stroke:#d55f00;fill-rule:evenodd;fill-opacity:.833;stroke-width:1.25"
           id="svg_70"
           d="m419.197083,356.840607a4.94815,5.3605 0 1 0 -9.89624,0a4.94815,5.3605 0 1 0 9.89624,0z" />
        <path
           style="stroke-opacity:.742;fill:#db6422;stroke:#d55f00;fill-rule:evenodd;fill-opacity:.833;stroke-width:1.25"
           id="svg_69"
           d="m372.337097,405.226624a4.94815,5.3605 0 1 0 -9.89624,0a4.94815,5.3605 0 1 0 9.89624,0z" />
        <path
           style="stroke-opacity:.742;fill:#db6422;stroke:#d55f00;fill-rule:evenodd;fill-opacity:.833;stroke-width:1.25"
           id="svg_68"
           d="m306.497101,445.172607a4.94815,5.3605 0 1 0 -9.89624,0a4.94815,5.3605 0 1 0 9.89624,0z" />
        <path
           style="stroke-opacity:.742;fill:#db6422;stroke:#d55f00;fill-rule:evenodd;fill-opacity:.833;stroke-width:1.25"
           id="svg_67"
           d="m449.656311,207.589111a4.94815,5.3605 0 1 0 -9.89624,0a4.94815,5.3605 0 1 0 9.89624,0z" />
        <path
           style="stroke-opacity:.742;fill:#db6422;stroke:#d55f00;fill-rule:evenodd;fill-opacity:.833;stroke-width:1.25"
           id="svg_66"
           d="m415.135101,299.982788a4.94815,5.3605 0 1 0 -9.89624,0a4.94815,5.3605 0 1 0 9.89624,0z" />
        <path
           style="stroke-opacity:.742;fill:#db6422;stroke:#d55f00;fill-rule:evenodd;fill-opacity:.833;stroke-width:1.25"
           id="svg_65"
           d="m359.138123,360.552612a4.94815,5.3605 0 1 0 -9.89624,0a4.94815,5.3605 0 1 0 9.89624,0z" />
        <path
           style="stroke-opacity:.742;fill:#db6422;stroke:#d55f00;fill-rule:evenodd;fill-opacity:.833;stroke-width:1.25"
           id="svg_64"
           d="m351.171082,387.299622a4.94815,5.3605 0 1 0 -9.89624,0a4.94815,5.3605 0 1 0 9.89624,0z" />
        <path
           style="stroke-opacity:.742;fill:#db6422;stroke:#d55f00;fill-rule:evenodd;fill-opacity:.833;stroke-width:1.25"
           id="svg_63"
           d="m327.818115,410.652588a4.94815,5.3605 0 1 0 -9.89624,0a4.94815,5.3605 0 1 0 9.89624,0z" />
        <path
           style="stroke-opacity:.742;fill:#db6422;stroke:#d55f00;fill-rule:evenodd;fill-opacity:.833;stroke-width:1.25"
           id="svg_62"
           d="m248.624115,445.172607a4.94815,5.3605 0 1 0 -9.89624,0a4.94815,5.3605 0 1 0 9.89624,0z" />
        <path
           style="stroke-opacity:.742;fill:#db6422;stroke:#d55f00;fill-rule:evenodd;fill-opacity:.833;stroke-width:1.25"
           id="svg_61"
           d="m441.533813,149.71611a4.94815,5.3605 0 1 0 -9.89624,0a4.94815,5.3605 0 1 0 9.89624,0z" />
        <path
           style="stroke-opacity:.742;fill:#db6422;stroke:#d55f00;fill-rule:evenodd;fill-opacity:.833;stroke-width:1.25"
           id="svg_60"
           d="m417.166107,232.972107a4.94815,5.3605 0 1 0 -9.89624,0a4.94815,5.3605 0 1 0 9.89624,0z" />
        <path
           style="stroke-opacity:.742;fill:#db6422;stroke:#d55f00;fill-rule:evenodd;fill-opacity:.833;stroke-width:1.25"
           id="svg_59"
           d="m390.768097,267.492706a4.94815,5.3605 0 1 0 -9.89624,0a4.94815,5.3605 0 1 0 9.89624,0z" />
        <path
           style="stroke-opacity:.742;fill:#db6422;stroke:#d55f00;fill-rule:evenodd;fill-opacity:.833;stroke-width:1.25"
           id="svg_58"
           d="m372.492096,312.166595a4.94815,5.3605 0 1 0 -9.89624,0a4.94815,5.3605 0 1 0 9.89624,0z" />
        <path
           style="stroke-opacity:.742;fill:#db6422;stroke:#d55f00;fill-rule:evenodd;fill-opacity:.833;stroke-width:1.25"
           id="svg_57"
           d="m323.75708,359.886597a4.94815,5.3605 0 1 0 -9.89624,0a4.94815,5.3605 0 1 0 9.89624,0z" />
        <path
           style="stroke-opacity:.742;fill:#db6422;stroke:#d55f00;fill-rule:evenodd;fill-opacity:.833;stroke-width:1.25"
           id="svg_56"
           d="m282.129089,384.253601a4.94815,5.3605 0 1 0 -9.89624,0a4.94815,5.3605 0 1 0 9.89624,0z" />
        <path
           style="stroke-opacity:.742;fill:#db6422;stroke:#d55f00;fill-rule:evenodd;fill-opacity:.833;stroke-width:1.25"
           id="svg_55"
           d="m233.394104,406.590607a4.94815,5.3605 0 1 0 -9.89624,0a4.94815,5.3605 0 1 0 9.89624,0z" />
        <path
           style="stroke-opacity:.742;fill:#db6422;stroke:#d55f00;fill-rule:evenodd;fill-opacity:.833;stroke-width:1.25"
           id="svg_54"
           d="m184.659088,448.218628a4.94815,5.3605 0 1 0 -9.89624,0a4.94815,5.3605 0 1 0 9.89624,0z" />
      </g>
    </symbol>
    <symbol
       id="svg_49">
      <g
         id="svg_34">
        <path
           style="fill:#ffe200;stroke:#000;fill-rule:evenodd;stroke-linejoin:round;stroke-width:10"
           id="svg_41"
           d="m388.75,93.75c-18.75,-17.5 31.25,-30 37.5,-23.75c10,5 -8.75,8.75 -7.5,17.5c1.25,8.75 0,55 10,57.5c10,2.5 22.5,11.25 22.5,23.75c31.25,77.5 -91.25,290 -381.25,183.75c-5,-3.75 -32.5,-35 -37.5,-42.5c-2.5,-8.75 -6.25,-30 8.75,-37.5c128.75,-33.75 277.5,32.5 345,-118.75c11.25,-26.25 2.5,-60 2.5,-60z" />
        <path
           style="fill:url(#svg_40);fill-rule:evenodd;stroke-width:1.25"
           id="svg_39"
           d="m43.75,290l2.5,-12.5c92.5,-35 263.75,38.75 346.25,-120c-41.25,112.5 -113.75,181.25 -348.75,132.5z" />
        <path
           style="fill:#442400;fill-rule:evenodd;stroke-width:1.25"
           id="svg_38"
           d="m 386.1527,89.1363 c 2.91464,-17.6004 29.1124,-18.0733 36.4446,-18.9447 11.9852,1.56632 -15.4866,21.4447 -36.4446,18.9447 z " />
        <path
           style="fill:#442400;fill-rule:evenodd;stroke-width:1.25"
           id="svg_37"
           d="m 32.5175,305.1412 c -0.932692,-18.3698 -1.86538,-24.4282 8.74391,-30.4866 4.61679,6.92517 3.74999,28.3698 -8.74391,30.4866 z " />
        <path
           style="fill:url(#svg_36);fill-rule:evenodd;stroke-width:1.25"
           id="svg_35"
           d="m 133.75,366.25 c 218.75,55 292.99,-83.122 306.25,-116.25 22.5,-40 8.75,-85 8.75,-85 -1.25,135 -142.5,243.75 -315,201.25 z " />
      </g>
    </symbol>
  </defs>
  <g
     id="g4430">
    <line
       style="fill:none;stroke:#000;stroke-width:16"
       id="svg_2"
       y1="12.696543"
       x1="593.197098"
       y2="715.553536"
       x2="807.482785"
       transform="rotate(2.72581, 700.34, 364.125)" />
    <g
       id="layer1">
      <g
         id="g4435"
         style="stroke:#000000;stroke-linecap:round"
         transform="matrix(1.09276,0,0,1.09276,-52.4671,-99.6954)">
        <path
           inkscape:connector-curvature="0"
           d="m 201.7682,326.1386 c -13.564,-23.494 251.39,-1.80896 251.39,-1.80896 37.98,-5.42505 15.566,120.503 -3.617,153.728 0,23.511 -220.038,22.203 -245.964,7.23401 0,0 14.01,-131.755 -1.80899,-159.153 z"
           id="rect1386"
           style="fill:#ffffff;fill-rule:evenodd;stroke-width:7.51999998" />
        <path
           inkscape:connector-curvature="0"
           d="m 180.1102,495.1576 c 52.824,23.271 367.516,0.56903 326.694,7.91303 -29.35,41.342 -16.723,279.848 -16.723,279.848 -21.703,-19.894 -164.106,-25.238 -330.921,-6.27197 1.047,-29.42 20.95,-281.489 20.95,-281.489 z"
           id="rect2114"
           style="fill:none;stroke-width:6.3920002" />
        <g
           id="g4439"
           style="fill:#ffffff;fill-rule:evenodd">
          <path
             inkscape:connector-curvature="0"
             d="m 89.8613,527.5813 c 36.5219,-7.15515 66.6209,-4.15814 66.6209,-4.15814 l -11.003,137.2885 -82.8077,-6.1779 c 0,0 32.6155,-102.693 27.1898,-126.952 z"
             id="rect2842"
             style="stroke-width:7.51999998" />
          <path
             inkscape:connector-curvature="0"
             transform="matrix(0.95555046,-0.2948276,0.2948276,0.95555046,-146.04988,191.46548)"
             d="m 524.1522,514.0193 c 57.2209,-6.90506 70.3032,0.61023 70.3032,0.61023 0,0 -11.1522,76.5668 10.5084,131.996 l -85.2349,2.4671 c 13.356,-66.5535 -10.7176,-103.44 4.42334,-135.073 z"
             id="rect2844"
             style="stroke-width:7.17999983" />
          <g
             id="g4443"
             style="fill-opacity:0.97100004;stroke-width:7.51999998">
            <path
               inkscape:connector-curvature="0"
               d="m 216.2368,794.5556 c 39.9319,-23.0547 94.0452,-5.42566 94.0452,-5.42566 l 0,307.45596 c 0,0 -31.1421,-8.5144 -106.705,0 3.61713,-27.1285 12.6599,-302.02996 12.6599,-302.02996 z"
               id="rect2846" />
            <path
               inkscape:connector-curvature="0"
               d="m 444.4362,789.4603 c -30.0692,-16.5848 -99.4327,-6.08502 -99.4327,-6.08502 10.8794,50.4665 -2.03839,307.44902 -2.03839,307.44902 47.0226,1.8085 33.7033,-2.3814 99.5406,-10.1918 -1.60467,-30.7568 -5.4715,-265.90102 1.93048,-291.17202 z"
               id="rect2848" />
          </g>
          <path
             inkscape:connector-curvature="0"
             d="m 314.3157,384.0124 c 0,20.2148 -14.7708,36.621 -32.9704,36.621 -18.1996,0 -32.9704,-16.4062 -32.9704,-36.621 0,-20.2148 20.8317,-41.6718 39.0313,-41.6718 18.1996,0 26.9095,21.457 26.9095,41.6718 z"
             id="path2858"
             style="fill-opacity:0.94100001;stroke-width:8.39999962" />
          <g
             id="g4448"
             style="stroke-width:7.51999998">
            <path
               inkscape:connector-curvature="0"
               d="m 266.8765,479.8661 20.2044,-0.9591 5.1154,40.7474 -25.3198,0 0,-39.7883 z"
               id="rect2862" />
            <path
               inkscape:connector-curvature="0"
               d="m 398.9108,481.1356 19.8848,-2.1737 0,46.1183 -22.7622,-2.8774 2.8774,-41.0671 z"
               id="rect2864" />
            <path
               inkscape:connector-curvature="0"
               d="m 381.355,749.072 19.8847,4.1562 -3.6171,35.267 -19.1451,8.8782 2.8774,-48.3015 z"
               id="path2868" />
            <path
               inkscape:connector-curvature="0"
               d="m 252.9472,752.6891 19.8847,4.1562 0.9043,43.4055 -23.6664,-6.4945 2.8774,-41.0672 z"
               id="path2870" />
          </g>
          <path
             inkscape:connector-curvature="0"
             d="m 519.5437,543.4138 8.3794,21.7468 -50.09,0.5285 -3.4979,-24.6069 45.2085,2.3317 z"
             id="path2872"
             style="stroke-width:7.88600016" />
          <path
             inkscape:connector-curvature="0"
             d="m 183.3342,539.0532 0.3473,20.3115 -38.8018,8.8052 -2.2313,-22.8345 40.6857,-6.2822 z"
             id="path2874"
             style="stroke-width:7.51999998" />
          <path
             inkscape:connector-curvature="0"
             d="m 362.0338,377.1422 c 2.36487,-20.0759 18.9535,-34.6415 37.0282,-32.5123 18.0747,2.12909 30.8247,20.1506 28.4598,40.2266 -2.36487,20.076 -25.5637,38.9486 -43.6384,36.8195 -18.0747,-2.12915 -24.2145,-24.4577 -21.8497,-44.5337 z"
             id="path2551"
             style="fill-opacity:0.94100001;stroke-width:6.65299988" />
        </g>
      </g>
      <g
         id="g4457"
         style="fill:#ffffff;fill-rule:evenodd"
         transform="matrix(1.09276,0,0,1.09276,-52.4671,-99.6954)">
        <path
           inkscape:connector-curvature="0"
           d="m 401.0679,566.0182 c 0.59814,-5.27496 4.79376,-9.10211 9.36523,-8.54266 4.57153,0.55945 7.79627,5.29462 7.19818,10.5696 -0.59815,5.27502 -6.46564,10.2338 -11.0372,9.67438 -4.57147,-0.55945 -6.12433,-6.42627 -5.52625,-11.7013 z"
           id="path2555"
           style="fill-opacity:0.94100001" />
        <path
           inkscape:connector-curvature="0"
           d="m 398.3229,740.731 69.7006,19.1929 9.0914,-88.8934 c 0,0 -6.06091,45.4568 -25.2538,59.599 -19.1929,14.1421 -58.5889,11.1116 -53.5381,10.1015 z"
           id="path3331"
           style="fill-opacity:0.75" />
        <path
           inkscape:connector-curvature="0"
           d="m 361.0203,443.263 1.2651,27.2624 -53.7474,6.9023 0,-34.1647 52.4823,0 z"
           id="path3343"
           style="fill-opacity:0.78399999;stroke:#000000;stroke-width:7.51999998;stroke-linecap:round" />
      </g>
      <g
         id="g4462"
         style="stroke-width:4"
         transform="matrix(1.09276,0,0,1.09276,-52.4671,-99.6954)">
        <path
           inkscape:connector-curvature="0"
           d="m 309.5845,453.3453 49.1544,4.5 c 0.0957,0 0.17279,0.0771 0.17279,0.17285 l 0,8.1543 c 0,0.0958 -0.0771,0.17285 -0.17279,0.17285 l -47.6544,0 c -0.0958,0 0.32715,2.42291 0.32715,2.32715 l -0.5,-10.6543 c 0,-0.0958 -1.42291,-4.67285 -1.32715,-4.67285 z"
           id="rect3345" />
        <path
           inkscape:connector-curvature="0"
           d="m 298.9117,372.3453 c 0,10.4934 -6.49188,19 -14.5,19 -8.00812,0 -14.4999,-8.50659 -14.4999,-19 0,-10.4934 6.49182,-19 14.4999,-19 8.00812,0 14.5,8.50659 14.5,19 z"
           id="path3348" />
        <path
           inkscape:connector-curvature="0"
           d="m 408.9112,372.3453 c 0,10.4934 -6.49188,19 -14.5,19 -8.00812,0 -14.5,-8.50659 -14.5,-19 0,-10.4934 6.49188,-19 14.5,-19 8.00812,0 14.5,8.50659 14.5,19 z"
           id="path3350" />
      </g>
      <g
         id="g4467"
         style="stroke:#000000"
         transform="matrix(1.09276,0,0,1.09276,-52.4671,-99.6954)">
        <path
           inkscape:connector-curvature="0"
           d="m 244.1737,253.2315 c 42.4264,8.48527 87.6812,67.8822 87.6812,67.8822 l -25.4559,-1.4142 -62.2254,-66.4681 z"
           id="path3352"
           style="fill-rule:evenodd" />
        <path
           inkscape:connector-curvature="0"
           d="m 255.6885,250.6421 c 0,8.201 -6.64825,14.8492 -14.8492,14.8492 -8.20102,0 -14.8492,-6.64822 -14.8492,-14.8492 0,-8.20102 6.64822,-14.8492 14.8492,-14.8492 8.20099,0 14.8492,6.64822 14.8492,14.8492 z"
           id="path3354"
           style="stroke-width:4" />
        <path
           inkscape:connector-curvature="0"
           d="m 463.492,244.7462 c -42.4264,8.48529 -120.208,74.9533 -120.208,74.9533 l 25.4559,-1.4142 94.7523,-73.5391 z"
           id="path3356"
           style="fill-rule:evenodd" />
        <path
           inkscape:connector-curvature="0"
           d="m 453.4505,237.2281 c 0,8.201 6.64819,14.8492 14.8492,14.8492 8.20099,0 14.8492,-6.64824 14.8492,-14.8492 0,-8.20102 -6.64825,-14.8492 -14.8492,-14.8492 -8.20105,0 -14.8492,6.64822 -14.8492,14.8492 z"
           id="path3358"
           style="stroke-width:4" />
        <g
           id="g4473"
           style="fill:#ffffff;stroke-width:7.51999998">
          <path
             inkscape:connector-curvature="0"
             d="m 83.3676,812.6497 -35.3554,28.2842 12.7279,65.0538 14.1421,-8.4853 -5.6569,-48.0833 29.6985,-16.9706 -15.5563,-19.7989 z"
             id="path2901" />
          <path
             inkscape:connector-curvature="0"
             d="m 101.0955,813.8212 35.3553,28.2842 -12.7279,65.0538 -14.1421,-8.4853 5.6569,-48.0833 -29.6985,-16.9705 15.5564,-19.799 z"
             id="path3675" />
          <path
             inkscape:connector-curvature="0"
             transform="matrix(0.0523621,-0.99862816,0.99862816,0.0523621,62.270351,1361.229)"
             d="m 738.4722,601.1348 35.3553,28.2843 -12.7279,65.0538 -14.1422,-8.4853 5.6569,-48.0833 -29.6985,-16.9705 15.5563,-19.7991 z"
             id="path3679" />
          <path
             inkscape:connector-curvature="0"
             transform="matrix(-0.50531101,-0.8629373,0.8629373,-0.50531101,562.97976,1634.0008)"
             d="m 759.7443,608.9633 -35.3553,28.2842 12.728,65.0538 14.1421,-8.4853 -5.6569,-48.0833 29.6985,-16.9705 -15.5563,-19.799 z"
             id="path3677" />
          <g
             id="g4479"
             style="fill-opacity:0.97100004;stroke-linecap:round;stroke-linejoin:round">
            <path
               inkscape:connector-curvature="0"
               d="m 223.9117,1103.3452 64,1 32,56.0002 -144,-4 48,-53.0002 z"
               id="rect3681" />
            <path
               inkscape:connector-curvature="0"
               d="m 363.9117,1096.3452 64,1.2106 32,67.7896 -124,-4.842 28,-64.1581 z"
               id="path3686" />
          </g>
        </g>
        <g
           id="g4483"
           style="fill:none;stroke-width:6">
          <path
             inkscape:connector-curvature="0"
             d="m 223.9118,854.3452 26,-12"
             id="path3694" />
          <path
             inkscape:connector-curvature="0"
             d="m 231.9117,831.3452 11,36"
             id="path3696" />
        </g>
        <g
           id="g4487"
           style="fill:#ffffff;fill-rule:evenodd;stroke-linecap:round">
          <path
             inkscape:connector-curvature="0"
             transform="matrix(-0.25890334,-0.96590324,0.96590324,-0.25890334,143.41802,1471.8706)"
             d="m 599.2547,609.1287 c 56.1664,-7.50153 69.0076,0.66296 69.0076,0.66296 0,0 -10.9467,83.1805 10.3148,143.398 l -83.6641,2.6802 c 13.1099,-72.3022 -10.5201,-112.375 4.3418,-146.741 z"
             id="svg_1"
             style="stroke-width:7.17999983" />
          <g
             id="g4490"
             style="stroke-width:7.51999998">
            <path
               inkscape:connector-curvature="0"
               d="m 80.2461,678.7437 c 37.5219,-0.15601 62.6209,9.841 63.6209,1.841 l -11.003,137.289 -82.8077,-6.178 c 0,0 4.6155,-80.693 21.1898,-133.952 l 9,1 z"
               id="svg_3" />
            <path
               inkscape:connector-curvature="0"
               d="m 99.0058,644.1383 19.8847,4.1562 0.9043,43.4055 -23.6665,-6.4945 2.8774,-41.0673 z"
               id="svg_4" />
            <path
               inkscape:connector-curvature="0"
               transform="matrix(0.8695613,-0.49382501,0.49382501,0.8695613,-244.15075,373.51301)"
               d="m 576.0057,625.1384 19.8848,4.1562 0.9043,43.4055 -23.6665,-6.4945 2.8774,-41.0672 z"
               id="svg_5" />
          </g>
        </g>
      </g>
      <g
         id="g4499"
         style="fill:none"
         transform="matrix(1.09276,0,0,1.09276,-52.4671,-99.6954)">
        <line
           x2="481.11261"
           x1="574.11261"
           y2="210.06902"
           y1="101.06901"
           id="svg_112"
           style="opacity:0.5" />
        <line
           x2="764.11261"
           x1="804.11261"
           y2="625.06903"
           y1="767.06903"
           id="svg_115" />
      </g>
    </g>
    <line
       style="fill:none;stroke:#000;stroke-width:16"
       id="svg_6"
       y1="576.125"
       y2="614.125"
       x1="753.839844"
       x2="763.839844" />
  </g>
</svg>
