<?xml version="1.0" encoding="UTF-8" standalone="no"?>
<svg
   xmlns:dc="http://purl.org/dc/elements/1.1/"
   xmlns:cc="http://creativecommons.org/ns#"
   xmlns:rdf="http://www.w3.org/1999/02/22-rdf-syntax-ns#"
   xmlns:svg="http://www.w3.org/2000/svg"
   xmlns="http://www.w3.org/2000/svg"
   version="1.1"
   id="svg4349"
   height="840"
   width="840">
  <metadata
     id="metadata4506">
    <rdf:RDF>
      <cc:Work
         rdf:about="">
        <dc:format>image/svg+xml</dc:format>
        <dc:type
           rdf:resource="http://purl.org/dc/dcmitype/StillImage" />
        <dc:title></dc:title>
      </cc:Work>
    </rdf:RDF>
  </metadata>
  <defs
     id="defs4351" />
  <g
     transform="translate(0,-334)"
     id="g4430">
    <g
       id="layer1">
      <g
         transform="translate(9.6815703,237.96947)"
         id="g4708">
        <line
           style="fill:none;stroke:#000000;stroke-width:16"
           id="svg_2"
           y1="12.696543"
           x1="593.19708"
           y2="715.55353"
           x2="807.48279"
           transform="matrix(0.99886855,0.04755642,-0.04755642,0.99886855,18.108877,-32.89367)" />
        <path
           style="fill:#ffffff;fill-rule:evenodd;stroke:#000000;stroke-width:8.21755505;stroke-linecap:round"
           id="rect1386"
           d="m 168.01712,256.69582 c -14.8222,-25.67331 274.70893,-1.97676 274.70893,-1.97676 41.50303,-5.92828 17.00991,131.68086 -3.95251,167.98781 0,25.69188 -240.44872,24.26255 -268.77962,7.90503 0,0 15.30957,-143.97659 -1.97679,-173.91603 z" />
        <path
           style="fill:none;stroke:#000000;stroke-width:6.98492193;stroke-linecap:round"
           id="rect2114"
           d="m 144.35012,441.39302 c 57.72396,25.42962 401.60679,0.62181 356.99814,8.64704 -32.07251,45.17689 -18.27423,305.8067 -18.27423,305.8067 -23.71617,-21.73937 -179.32847,-27.57907 -361.61723,-6.85376 1.14412,-32.149 22.89332,-307.59992 22.89332,-307.59992 z" />
        <path
           d="m 45.729734,476.82434 c 39.909672,-7.81886 72.800656,-4.54385 72.800656,-4.54385 l -12.02364,150.02338 -90.488942,-6.75096 c 0,0 35.640914,-112.2188 29.711926,-138.72807 z"
           id="rect2842"
           style="fill:#ffffff;fill-rule:evenodd;stroke:#000000;stroke-width:8.21755505;stroke-linecap:round" />
        <path
           d="m 500.85308,477.39369 c 57.5247,-25.64537 73.60631,-22.0128 73.60631,-22.0128 0,0 13.02299,83.54305 53.49866,134.44299 l -88.20636,30.03674 c -7.49576,-73.7973 -44.51705,-104.55778 -38.89846,-142.4666 z"
           id="rect2844"
           style="fill:#ffffff;fill-rule:evenodd;stroke:#000000;stroke-width:7.84601641;stroke-linecap:round" />
        <g
           id="g4443"
           style="fill:#ffffff;fill-opacity:0.97100004;fill-rule:evenodd;stroke:#000000;stroke-width:7.51999998;stroke-linecap:round"
           transform="matrix(1.09276,0,0,1.09276,-52.4671,-99.6954)">
          <path
             d="m 216.2368,794.5556 c 39.9319,-23.0547 94.0452,-5.42566 94.0452,-5.42566 l 0,307.45596 c 0,0 -31.1421,-8.5144 -106.705,0 3.61713,-27.1285 12.6599,-302.02996 12.6599,-302.02996 z"
             id="rect2846" />
          <path
             d="m 444.4362,789.4603 c -30.0692,-16.5848 -99.4327,-6.08502 -99.4327,-6.08502 10.8794,50.4665 -2.03839,307.44902 -2.03839,307.44902 47.0226,1.8085 33.7033,-2.3814 99.5406,-10.1918 -1.60467,-30.7568 -5.4715,-265.90102 1.93048,-291.17202 z"
             id="rect2848" />
        </g>
        <path
           d="m 291.00452,319.93799 c 0,22.08993 -16.14094,40.01796 -36.02873,40.01796 -19.88779,0 -36.02873,-17.92803 -36.02873,-40.01796 0,-22.08992 22.76404,-45.53728 42.65184,-45.53728 19.88779,0 29.40562,23.44736 29.40562,45.53728 z"
           id="path2858"
           style="fill:#ffffff;fill-opacity:0.94100001;fill-rule:evenodd;stroke:#000000;stroke-width:9.17918396;stroke-linecap:round" />
        <g
           id="g4448"
           style="fill:#ffffff;fill-rule:evenodd;stroke:#000000;stroke-width:7.51999998;stroke-linecap:round"
           transform="matrix(1.09276,0,0,1.09276,-52.4671,-99.6954)">
          <path
             d="m 266.8765,479.8661 20.2044,-0.9591 5.1154,40.7474 -25.3198,0 0,-39.7883 z"
             id="rect2862" />
          <path
             d="m 398.9108,481.1356 19.8848,-2.1737 0,46.1183 -22.7622,-2.8774 2.8774,-41.0671 z"
             id="rect2864" />
          <path
             d="m 381.355,749.072 19.8847,4.1562 -3.6171,35.267 -19.1451,8.8782 2.8774,-48.3015 z"
             id="path2868" />
          <path
             d="m 252.9472,752.6891 19.8847,4.1562 0.9043,43.4055 -23.6664,-6.4945 2.8774,-41.0672 z"
             id="path2870" />
        </g>
        <path
           d="m 515.26947,494.12546 9.15668,23.76404 -54.73635,0.57752 -3.82237,-26.88944 49.40204,2.54799 z"
           id="path2872"
           style="fill:#ffffff;fill-rule:evenodd;stroke:#000000;stroke-width:8.61750507;stroke-linecap:round" />
        <path
           d="m 147.87318,489.36037 0.37952,22.1956 -42.40106,9.62197 -2.43827,-24.95263 44.4597,-6.86494 z"
           id="path2874"
           style="fill:#ffffff;fill-rule:evenodd;stroke:#000000;stroke-width:8.21755505;stroke-linecap:round" />
        <path
           d="m 343.14896,312.43051 c 2.58423,-21.93814 20.71162,-37.85485 40.46293,-35.52814 19.75131,2.32658 33.684,22.01977 31.09973,43.95802 -2.58423,21.93825 -27.93499,42.56147 -47.6863,40.23488 -19.7513,-2.32665 -26.46063,-26.7264 -23.87647,-48.66465 z"
           id="path2551"
           style="fill:#ffffff;fill-opacity:0.94100001;fill-rule:evenodd;stroke:#000000;stroke-width:7.27013206;stroke-linecap:round" />
        <path
           style="fill:#ffffff;fill-opacity:0.94100001;fill-rule:evenodd"
           id="path2555"
           d="m 385.80386,518.82665 c 0.65362,-5.76427 5.23843,-9.94642 10.23395,-9.33508 4.99558,0.61135 8.51945,5.78575 7.86588,11.55004 -0.65363,5.76433 -7.06539,11.18308 -12.06101,10.57177 -4.99552,-0.61134 -6.69242,-7.02237 -6.03887,-12.78671 z" />
        <path
           style="fill:#ffffff;fill-opacity:0.75;fill-rule:evenodd"
           id="path3331"
           d="m 382.80423,709.74581 76.16603,20.97323 9.93472,-97.13915 c 0,0 -6.62312,49.67337 -27.59634,65.1274 -20.97324,15.45392 -64.02361,12.14231 -58.5043,11.03852 z" />
        <path
           style="fill:#ffffff;fill-opacity:0.78399999;fill-rule:evenodd;stroke:#000000;stroke-width:8.21755505;stroke-linecap:round"
           id="path3343"
           d="m 342.04144,384.68468 1.38245,29.79126 -58.73301,7.54255 0,-37.33381 57.35056,0 z" />
        <path
           style="stroke-width:4"
           id="rect3345"
           d="m 285.83446,395.70221 53.71396,4.91742 c 0.10458,0 0.18882,0.0843 0.18882,0.18888 l 0,8.9107 c 0,0.10468 -0.0842,0.18888 -0.18882,0.18888 l -52.07482,0 c -0.10469,0 0.35749,2.64766 0.35749,2.54302 l -0.54638,-11.6426 c 0,-0.10468 -1.55489,-5.1063 -1.45025,-5.1063 z" />
        <path
           style="stroke-width:4"
           id="path3348"
           d="m 274.17165,307.18865 c 0,11.46677 -7.09407,20.76244 -15.84502,20.76244 -8.75095,0 -15.84491,-9.29566 -15.84491,-20.76244 0,-11.46677 7.094,-20.76244 15.84491,-20.76244 8.75095,0 15.84502,9.29566 15.84502,20.76244 z" />
        <path
           style="stroke-width:4"
           id="path3350"
           d="m 394.3747,307.18865 c 0,11.46677 -7.09406,20.76244 -15.84502,20.76244 -8.75095,0 -15.84502,-9.29566 -15.84502,-20.76244 0,-11.46677 7.09407,-20.76244 15.84502,-20.76244 8.75096,0 15.84502,9.29566 15.84502,20.76244 z" />
        <path
           style="fill-rule:evenodd;stroke:#000000;stroke-width:1.09275997"
           id="path3352"
           d="m 214.35615,177.02585 c 46.36188,9.27237 95.81451,74.17896 95.81451,74.17896 l -27.81719,-1.54538 -67.99743,-72.63369 z" />
        <path
           style="stroke:#000000;stroke-width:4.37103987"
           id="path3354"
           d="m 226.93907,174.19626 c 0,8.96173 -7.26495,16.22661 -16.22662,16.22661 -8.96174,0 -16.22661,-7.26491 -16.22661,-16.22661 0,-8.96175 7.26491,-16.22661 16.22661,-16.22661 8.96172,0 16.22662,7.26491 16.22662,16.22661 z" />
        <path
           style="fill-rule:evenodd;stroke:#000000;stroke-width:1.09275997"
           id="path3356"
           d="m 454.01842,167.75346 c -46.36187,9.27238 -131.3585,81.90597 -131.3585,81.90597 l 27.81719,-1.54539 103.54153,-80.36058 z" />
        <path
           style="stroke:#000000;stroke-width:4.37103987"
           id="path3358"
           d="m 443.04547,159.53798 c 0,8.96172 7.26487,16.22661 16.22661,16.22661 8.96171,0 16.22661,-7.26493 16.22661,-16.22661 0,-8.96175 -7.26494,-16.22661 -16.22661,-16.22661 -8.96178,0 -16.22661,7.26491 -16.22661,16.22661 z" />
        <path
           style="fill:#ffffff;stroke:#000000;stroke-width:8.21755505"
           d="m 38.633679,788.33569 -38.63496733,30.90784 13.90854033,71.08819 15.453921,-9.2724 -6.181634,-52.5435 32.453333,-18.5448 -16.999303,-21.63544 z"
           id="path2901" />
        <path
           style="fill:#ffffff;stroke:#000000;stroke-width:8.21755505"
           d="m 58.006019,789.61585 38.634857,30.90785 -13.90854,71.08819 -15.453921,-9.2724 6.181634,-52.54351 -32.453333,-18.54468 16.999412,-21.63555 z"
           id="path3675" />
        <path
           style="fill:#ffffff;stroke:#000000;stroke-width:8.21755505"
           d="m 713.82915,616.33182 32.88855,-36.96345 70.26239,17.61179 -10.06888,14.9473 -52.14774,-8.92444 -20.21857,31.43777 -20.71587,-18.10887 z"
           id="path3679" />
        <path
           style="fill:#ffffff;stroke:#000000;stroke-width:8.21755505"
           d="m 717.45853,633.18948 46.19415,17.72139 54.31646,-47.92394 -15.81054,-8.65032 -42.2181,31.88518 -32.40193,-18.63436 -10.08019,25.60201 z"
           id="path3677" />
        <g
           id="g4479"
           style="fill:#ffffff;fill-opacity:0.97100004;stroke:#000000;stroke-width:7.51999998;stroke-linecap:round;stroke-linejoin:round"
           transform="matrix(1.09276,0,0,1.09276,-52.4671,-99.6954)">
          <path
             d="m 223.9117,1103.3452 64,1 32,56.0002 -144,-4 48,-53.0002 z"
             id="rect3681" />
          <path
             d="m 363.9117,1096.3452 64,1.2106 32,67.7896 -124,-4.842 28,-64.1581 z"
             id="path3686" />
        </g>
        <path
           style="fill:none;stroke:#000000;stroke-width:6.55656004"
           d="m 192.21476,833.89886 28.41176,-13.11312"
           id="path3694" />
        <path
           style="fill:none;stroke:#000000;stroke-width:6.55656004"
           d="m 200.95673,808.76538 12.02036,39.33936"
           id="path3696" />
        <path
           d="M 577.6493,703.85811 C 553.84088,646.69678 558.82548,630.833 558.82548,630.833 c 0,0 90.89408,-11.97911 148.43839,-51.45732 l 26.49913,87.54921 c -80.02404,6.61817 -115.63552,42.89701 -156.11356,36.93307 z"
           id="svg_1"
           style="fill:#ffffff;fill-rule:evenodd;stroke:#000000;stroke-width:7.84601641;stroke-linecap:round" />
        <g
           id="g4490"
           style="fill:#ffffff;fill-rule:evenodd;stroke:#000000;stroke-width:7.51999998;stroke-linecap:round"
           transform="matrix(1.09276,0,0,1.09276,-52.4671,-99.6954)">
          <path
             d="m 80.2461,678.7437 c 37.5219,-0.15601 62.6209,9.841 63.6209,1.841 l -11.003,137.289 -82.8077,-6.178 c 0,0 4.6155,-80.693 21.1898,-133.952 l 9,1 z"
             id="svg_3" />
          <path
             d="m 99.0058,644.1383 19.8847,4.1562 0.9043,43.4055 -23.6665,-6.4945 2.8774,-41.0673 z"
             id="svg_4" />
          <path
             transform="matrix(0.8695613,-0.49382501,0.49382501,0.8695613,-244.15075,373.51301)"
             d="m 576.0057,625.1384 19.8848,4.1562 0.9043,43.4055 -23.6665,-6.4945 2.8774,-41.0672 z"
             id="svg_5" />
        </g>
        <line
           style="opacity:0.5;fill:none"
           id="svg_112"
           y1="10.748769"
           y2="129.85962"
           x1="574.90021"
           x2="473.27353" />
        <line
           style="fill:none"
           id="svg_115"
           y1="738.52698"
           y2="583.35504"
           x1="826.23499"
           x2="782.5246" />
      </g>
    </g>
    <line
       x2="763.83984"
       x1="753.83984"
       y2="614.125"
       y1="576.125"
       id="svg_6"
       style="fill:none;stroke:#000000;stroke-width:16" />
  </g>
</svg>
